<?xml version="1.0" encoding="utf-8"?>
<!-- Generator: Adobe Illustrator 16.0.0, SVG Export Plug-In . SVG Version: 6.00 Build 0)  -->
<!DOCTYPE svg PUBLIC "-//W3C//DTD SVG 1.1//EN" "http://www.w3.org/Graphics/SVG/1.1/DTD/svg11.dtd">
<svg version="1.1" id="Layer_1" xmlns="http://www.w3.org/2000/svg" xmlns:xlink="http://www.w3.org/1999/xlink" x="0px" y="0px"
	 width="256px" height="256px" viewBox="0 0 256 256" enable-background="new 0 0 256 256" xml:space="preserve">
<g>
	<path fill="#BCF170" d="M210.501,81.053c-39.67-39.673-103.991-39.67-143.667,0.003c-39.669,39.67-39.669,103.99,0,143.666
		c39.676,39.672,103.997,39.672,143.667,0C250.172,185.053,250.177,120.726,210.501,81.053z"/>
	<path fill="#9AC13D" d="M186.837,63.335c2.717,1.213,5.154,2.817,7.223,4.89c18.472,18.466,2.09,64.795-36.587,103.467
		c-38.672,38.677-84.998,55.06-103.469,36.588c-2.067-2.068-3.676-4.505-4.888-7.223c-6.038,17.414-5.887,31.597,1.915,39.403
		c18.465,18.46,72.663-5.783,121.045-54.164c48.381-48.384,72.63-102.579,54.165-121.044
		C218.438,57.452,204.25,57.299,186.837,63.335z"/>
	<g>
		<path fill="#A5D34C" d="M80.581,129.771c-4.31-4.31-11.298-4.31-15.613,0.002c-4.31,4.313-4.31,11.3,0,15.615
			c4.31,4.311,11.304,4.311,15.613,0C84.896,141.078,84.896,134.085,80.581,129.771z"/>
		<path fill="#A5D34C" d="M169.822,100.962c-3.108-3.104-8.145-3.104-11.242,0c-3.104,3.104-3.109,8.137,0,11.243
			c3.098,3.102,8.134,3.104,11.242,0C172.921,109.101,172.921,104.066,169.822,100.962z"/>
		<path fill="#A5D34C" d="M129.922,103.54c-4.826-4.828-12.654-4.828-17.487,0.003c-4.828,4.828-4.828,12.661,0,17.486
			c4.833,4.831,12.661,4.831,17.487,0.002C134.757,116.203,134.757,108.371,129.922,103.54z"/>
		<path fill="#A5D34C" d="M214.174,171.545c-3.623-3.623-9.498-3.617-13.121,0.006c-3.621,3.616-3.621,9.492,0,13.114
			c3.623,3.623,9.493,3.616,13.115,0C217.789,181.043,217.796,175.167,214.174,171.545z"/>
		<path fill="#A5D34C" d="M120.558,171.005c-3.105-3.104-8.14-3.104-11.244,0c-3.1,3.098-3.1,8.134,0.005,11.236
			c3.098,3.1,8.133,3.1,11.232,0C123.654,179.139,123.654,174.103,120.558,171.005z"/>
		<path fill="#A5D34C" d="M157.642,228.077c-1.38-1.38-3.612-1.375-4.991,0c-1.376,1.38-1.381,3.611,0.005,4.991
			c1.374,1.381,3.606,1.381,4.986,0C159.017,231.694,159.021,229.457,157.642,228.077z"/>
	</g>
	<polygon fill="#9AC13D" points="255.986,13.674 251.377,29.398 255.986,45.123 240.261,40.519 224.531,45.125 229.143,29.398 
		224.531,13.674 240.261,18.278 	"/>
	<polygon fill="#9AC13D" points="120.797,1.525 125.096,9.378 132.94,13.669 125.096,17.964 120.797,25.814 116.504,17.964 
		108.66,13.674 116.504,9.378 	"/>
	<polygon fill="#9AC13D" points="26.608,29.398 36.006,46.588 53.197,55.989 36.006,65.395 26.608,82.586 17.204,65.395 
		0.014,55.989 17.204,46.588 	"/>
	<polygon opacity="0.15" points="255.986,13.674 240.261,18.278 240.261,40.519 255.986,45.123 251.377,29.398 	"/>
	<polygon opacity="0.15" points="132.94,13.669 125.096,9.378 120.797,1.531 120.797,25.812 125.096,17.964 	"/>
	<polygon opacity="0.15" points="36.006,46.588 26.608,29.398 26.608,82.586 36.006,65.395 53.197,55.989 	"/>
	<path opacity="0.15" d="M186.837,63.335c1.877,0.837,3.612,1.879,5.194,3.115c-39.169-24.223-91.216-19.374-125.197,14.606
		l143.667,143.666c32.491-32.49,38.355-81.517,17.627-119.99c6.064-17.454,5.924-31.668-1.888-39.479
		C218.438,57.452,204.25,57.299,186.837,63.335z"/>
</g>
</svg>
